<?xml version="1.0" encoding="UTF-8"?>
<!DOCTYPE svg  PUBLIC '-//W3C//DTD SVG 1.1//EN'  'http://www.w3.org/Graphics/SVG/1.1/DTD/svg11.dtd'>
<svg enable-background="new 0 0 48 48" version="1.1" viewBox="0 0 48 48" xml:space="preserve" xmlns="http://www.w3.org/2000/svg">
	<polygon points="30 42 28 37 20 36 24 44 34 46 34 44" fill="#CD0E79"/>
	<path d="m42 21-2-6-5-4-3.509-0.78-1.491-5.22-3-3h-8l-5 1-1 3 5 2 0.64 1.92-0.64 0.08-6 3-5 5-1 7 4 8 7 3 3 0.75v3.25l3 5 6 2h6v-3l-4-2-1.546-4.637 2.546-0.363 5-3 4-4 2-5-1-4zm-24-16h9l1 1 1.24 3.72-3.24-0.72-5.44 0.68-0.56-1.68-2-3zm15 40h-3l-6-3-2-3v-1.75l3 0.75 2.228-0.318 1.772 5.318 4 2zm-2-11-6 1-8-2-6-3-2-5 1-6 4-4 5-2 7-1 8 2 4 3 2 8-3 6-6 3z" fill="#7F084B"/>
	<polygon points="38 17 34 14 30.689 13.172 28 6 27 5 18 5 20 8 21 12 19 13 14 15 10 19 9 25 11 30 17 33 25 35 31 34 37 31 40 25" fill="#FF0A47"/>
	<polygon points="26 27 26 30 24 30 24 27 22 27 22 30 24 32 26 32 28 30 28 27" fill="#7F084B"/>
<g fill="#B9EFAC">
	<polygon points="28 20 29 25 36 26 37 20"/>
	<polygon points="13 25 20 26 21 20 12 20"/>
</g>
<g fill="#7F084B">
	<path d="m19 18h-1v-1h-3v1h-1l-2 1-1 2v3l1 2 2 1h1l2 2v2h2v-2l-1-2h1l2-1 1-2v-3l-1-2-2-1zm-6 6v-3l1-1h1v5h-1l-1-1zm7 0-1 1h-1v-5h1l1 1v3z"/>
	<path d="m37 19-2-1h-1v-1h-3v1h-1l-2 1-1 2v3l1 2 2 1h1l2 2v2h2v-2l-1-2h1l2-1 1-2v-3l-1-2zm-8 5v-3l1-1h1v5h-1l-1-1zm7 0-1 1h-1v-5h1l1 1v3z"/>
</g>
</svg>
