<?xml version="1.0" encoding="UTF-8"?>
<!DOCTYPE svg  PUBLIC '-//W3C//DTD SVG 1.1//EN'  'http://www.w3.org/Graphics/SVG/1.1/DTD/svg11.dtd'>
<svg enable-background="new 0 0 24 24" version="1.1" viewBox="0 0 24 24" xml:space="preserve" xmlns="http://www.w3.org/2000/svg">
<g fill="#fff">
	<path d="m19 9h-2l2-4h-10l-4 6-1 1v5l2 2h11l3-4v-5l-1-1zm-9-3h7l-3 5h-7l3-5zm-4 6h9l1-1 0.5-1h1.5l-2 3h-11l1-1zm-1 4v-2h11v2h-11zm10 2h-8l-1-1h9v1zm4-4-3 4v-1l1-1v-2l2-3v3z"/>
	<rect x="10" y="7" width="5" height="1"/>
	<rect x="9" y="9" width="5" height="1"/>
</g>
</svg>
